PathFileType	4	(X/Y/Z)	C:\Users\Basilio\Documents\Thesis Gigler\squatting_fais\c3dfiles\039\SJ_pre3\markers_experimental.trc
DataRate	CameraRate	NumFrames	NumMarkers	Units	OrigDataRate	OrigDataStartFrame	OrigNumFrames
200.000000	200.000000	4	63	mm	200.000000	440	1760
Frame#	Time	FHD			LBHD			RBHD			C7			T10			CLAV			LSHO			LUUPA			LMUPA			LDUPA			LLEP			LMEP			LRAD			LUL			LRFIN			RSHO			RUPA1			RMUPA			RDUPA			RLEP			RMEP			RRAD			RUL			RUFIN			LASI			RASI			USACR			LSACR			RSACR			LTHI1			LTHI2			LTHI3			LTHI4			LLFC			LMFC			LTIB1			LTIB2			LTIB3			LTIB4			LLMAL			LMMAL			LHEE			LMT1			LMT2			LMT5			RTHI			RTHI2			RTHI3			RTHI4			RLFC			RMFC			RTIB1			RTIB2			RTIB3			RTIB4			RLMAL			RMMAL			RHEE			RMT1			RMT2			RMT5			*61			*62			
		X1	Y1	Z1	X2	Y2	Z2	X3	Y3	Z3	X4	Y4	Z4	X5	Y5	Z5	X6	Y6	Z6	X7	Y7	Z7	X8	Y8	Z8	X9	Y9	Z9	X10	Y10	Z10	X11	Y11	Z11	X12	Y12	Z12	X13	Y13	Z13	X14	Y14	Z14	X15	Y15	Z15	X16	Y16	Z16	X17	Y17	Z17	X18	Y18	Z18	X19	Y19	Z19	X20	Y20	Z20	X21	Y21	Z21	X22	Y22	Z22	X23	Y23	Z23	X24	Y24	Z24	X25	Y25	Z25	X26	Y26	Z26	X27	Y27	Z27	X28	Y28	Z28	X29	Y29	Z29	X30	Y30	Z30	X31	Y31	Z31	X32	Y32	Z32	X33	Y33	Z33	X34	Y34	Z34	X35	Y35	Z35	X36	Y36	Z36	X37	Y37	Z37	X38	Y38	Z38	X39	Y39	Z39	X40	Y40	Z40	X41	Y41	Z41	X42	Y42	Z42	X43	Y43	Z43	X44	Y44	Z44	X45	Y45	Z45	X46	Y46	Z46	X47	Y47	Z47	X48	Y48	Z48	X49	Y49	Z49	X50	Y50	Z50	X51	Y51	Z51	X52	Y52	Z52	X53	Y53	Z53	X54	Y54	Z54	X55	Y55	Z55	X56	Y56	Z56	X57	Y57	Z57	X58	Y58	Z58	X59	Y59	Z59	X60	Y60	Z60	X61	Y61	Z61	X62	Y62	Z62	X63	Y63	Z63	

441	2.2	-205.735580444336	1739.82568359375	-832.345642089844	-346.1590270996094	1671.33544921875	-957.8472290039065	-329.1862792968751	1687.734741210938	-818.5925292968752	-374.8637390136719	1541.627685546875	-890.859558105469	-421.4450073242189	1228.219482421875	-890.4959716796877	-237.8380584716797	1457.258666992188	-889.9687500000002	-295.4149475097657	1507.91845703125	-1078.651611328125	-398.0857849121095	1380.687744140625	-1237.110473632813	-363.9379272460938	1343.598510742188	-1241.337158203125	-406.5803527832032	1326.681762695313	-1281.095581054688	-408.5915832519532	1261.0439453125	-1311.030395507813	-484.9314575195314	1249.434204101563	-1265.451293945313	-404.6304931640626	1026.615844726563	-1134.494995117188	-355.0791320800782	1005.788269042969	-1189.461669921875	-352.8224487304688	1031.970458984375	-1085.923095703125	-272.2813720703126	1508.204956054688	-698.6619262695314	-397.355194091797	1403.09033203125	-544.9769897460939	-369.0005187988282	1363.18359375	-531.6263427734376	-418.6371154785157	1354.403686523438	-498.8860168457032	-419.4002075195314	1290.199584960938	-467.0895385742189	-495.941864013672	1281.953735351563	-513.3375854492189	-384.4248352050782	1083.141845703125	-677.6594848632814	-372.7907104492188	1035.276123046875	-619.0218505859376	-329.6390075683594	1055.61865234375	-722.6652832031251	-281.5299072265626	1021.773620605469	-1006.663024902344	-280.0314331054688	1011.094665527344	-788.501647949219	-454.2854614257814	1102.762939453125	-890.4971923828127	-464.8103942871095	1073.810668945313	-919.4080200195315	-466.6305541992189	1072.809326171875	-861.3643188476565	-311.1557922363282	759.3507080078126	-1102.510131835938	-261.2433471679688	691.0993652343751	-1113.30615234375	-214.5413818359376	704.9108276367189	-1108.965942382813	-273.2897338867188	632.9698486328126	-1099.568237304688	-244.2854919433594	518.4152221679689	-1106.56005859375	-203.5949401855469	492.7252807617189	-995.1928710937502	-198.0371246337891	368.9066162109376	-1088.759643554688	-270.1514587402344	340.2995605468751	-1128.977905273438	-231.7517089843751	329.2463073730469	-1112.1611328125	-246.2941131591797	250.491195678711	-1071.762451171875	-341.3228759765626	98.52127838134768	-1103.388549804688	-317.9113769531251	93.93166351318361	-1018.531188964844	-410.0139160156251	41.27988815307618	-1061.573974609375	-175.375473022461	56.44847869873048	-1069.509643554688	-185.7261352539063	56.1019859313965	-1112.30908203125	-234.7938537597657	32.09393310546876	-1159.437866210938	-298.6181945800782	763.3828125000001	-687.9470825195314	-246.4584960937501	722.6768798828126	-676.4850463867189	-215.6786346435547	733.6123046875001	-681.7612915039064	-250.3077850341797	636.7174072265626	-677.7581176757814	-247.3729400634766	501.4368896484376	-688.8976440429689	-202.5273895263672	487.3169860839845	-796.2861938476565	-230.7657012939454	293.4873352050782	-692.9381103515626	-323.1338500976563	238.7140808105469	-687.4826660156251	-278.2178039550782	225.1478881835938	-686.0062866210939	-263.9144592285157	173.0348510742188	-711.2650756835939	-342.3322753906251	91.2858352661133	-691.1202392578126	-305.0259704589844	98.80982208251956	-773.9482421875002	-405.9886779785157	39.84693908691407	-744.3975830078126	-172.5212860107422	51.73366928100587	-714.8365478515626	-184.3425445556641	59.29551696777345	-670.6247558593751	-242.7191162109376	31.93304061889649	-625.9598388671876	nan	nan	nan	nan	nan	nan	
442	2.205	-204.8059692382813	1739.202026367188	-832.1798095703127	-344.9300842285157	1670.697631835938	-957.7520141601565	-327.9134521484376	1686.692993164063	-818.5906982421877	-374.1918640136719	1541.318359375	-890.884216308594	-421.6211853027345	1227.950073242188	-890.5361328125002	-237.4788970947266	1456.639404296875	-889.8792724609377	-294.7193908691407	1507.328735351563	-1078.602661132813	-397.5733642578126	1380.426391601563	-1237.146728515625	-363.6571044921876	1343.466430664063	-1240.997802734375	-405.9584045410157	1326.297729492188	-1281.221923828125	-408.120819091797	1260.855346679688	-1311.101684570313	-484.6649475097657	1249.384887695313	-1265.625	-403.5270385742189	1025.753662109375	-1134.428100585938	-355.0952148437501	1005.591430664063	-1189.316284179688	-353.2833557128907	1031.606079101563	-1085.943237304688	-271.6850585937501	1507.67236328125	-698.6131591796876	-396.7130737304689	1402.806884765625	-544.9946899414064	-368.7362976074219	1362.917358398438	-531.5485839843751	-418.2607727050782	1354.184936523438	-498.8087463378907	-419.2739562988282	1289.924072265625	-467.0303955078126	-495.5929260253907	1281.319946289063	-513.0387573242189	-384.6968078613282	1082.8291015625	-677.6513671875001	-373.3019409179688	1034.82666015625	-618.8158569335939	-330.0136108398438	1055.141967773438	-722.5795288085939	-282.1672973632813	1021.318237304688	-1006.624084472656	-280.4341735839844	1010.731384277344	-788.5650634765627	-454.5631713867189	1102.486083984375	-890.5034179687502	-465.2776794433595	1073.535400390625	-919.4118652343752	-467.0634765625001	1072.564819335938	-861.3597412109377	-311.3722839355469	759.0845947265626	-1102.564819335938	-261.3388366699219	690.8646240234376	-1113.45361328125	-214.5809173583985	704.7498779296876	-1109.095825195313	-273.2465820312501	632.7332763671876	-1099.624389648438	-244.1185455322266	518.2601318359376	-1106.652099609375	-203.3714447021485	492.6172485351564	-995.3331298828127	-197.8314361572266	368.9081115722657	-1088.825805664063	-269.9711608886719	340.2797241210938	-1129.043090820313	-231.6722259521485	329.2210388183594	-1112.250122070313	-246.0115661621094	250.285385131836	-1071.8330078125	-341.2527160644532	98.403678894043	-1103.392211914063	-317.9176330566407	93.93457031250001	-1018.529418945313	-410.0048217773439	41.28487777709962	-1061.591552734375	-175.4176330566407	56.41405105590822	-1069.578247070313	-185.9154510498047	56.17818832397462	-1112.387329101563	-234.8422241210938	32.04007720947266	-1159.4697265625	-298.9167785644532	763.1361694335939	-687.8278808593751	-246.5860290527344	722.4703369140626	-676.4409790039064	-215.9055633544922	733.4985351562501	-681.5851440429689	-250.3068847656251	636.4661254882814	-677.4955444335939	-247.1697387695313	501.2552795410157	-688.7006225585939	-202.2844848632813	487.212127685547	-796.058044433594	-230.7040100097657	293.4372863769532	-692.8584594726564	-323.0299072265626	238.7438507080079	-687.4383544921876	-278.1562194824219	225.1260833740235	-685.9070434570314	-263.8500061035157	173.0085601806641	-711.2167968750001	-342.3581542968751	91.31802368164064	-691.1141357421876	-304.9982910156251	98.80875396728518	-773.9641723632815	-406.0028381347657	39.87627792358399	-744.3777465820314	-172.5334930419922	51.71143341064455	-714.8658447265626	-184.6555633544922	58.93127059936525	-670.8029174804689	-242.7319946289063	31.95388221740723	-625.9499511718751	nan	nan	nan	nan	nan	nan	
443	2.21	-203.5573272705079	1738.584228515625	-831.8887329101565	-344.2198486328126	1670.214477539063	-957.6860961914065	-327.2043457031251	1686.512817382813	-818.5382080078127	-373.5409851074219	1541.020874023438	-890.8892211914065	-421.6762695312501	1227.8076171875	-890.5096435546877	-236.836898803711	1455.96240234375	-889.9493408203127	-293.9743041992188	1506.98828125	-1078.553100585938	-396.9964904785157	1380.01416015625	-1237.1669921875	-363.8058776855469	1342.304077148438	-1241.177856445313	-405.5336914062501	1325.993896484375	-1281.28076171875	-407.6800842285157	1260.706176757813	-1311.221313476563	-484.2186889648439	1249.218627929688	-1265.829467773438	-403.9086303710939	1025.520629882813	-1134.570556640625	-355.5346679687501	1005.285522460938	-1189.376342773438	-353.6484680175782	1031.198364257813	-1085.992553710938	-270.9750671386719	1507.087890625	-698.5784912109376	-396.2503356933595	1402.470336914063	-544.9003295898439	-368.2982788085938	1362.758178710938	-531.2269287109376	-417.7859497070314	1353.890258789063	-498.855194091797	-419.0422973632814	1289.714965820313	-466.9754943847657	-495.4549865722657	1281.2978515625	-513.0552368164064	-385.099334716797	1082.52734375	-677.6276855468751	-373.3572998046876	1034.653076171875	-619.1123046875001	-330.4022216796876	1054.70166015625	-722.5655517578126	-282.8298950195313	1020.891967773438	-1006.507385253906	-280.6965026855469	1010.013305664063	-788.412780761719	-454.8993225097657	1102.51123046875	-890.5786743164065	-465.4826049804689	1073.152221679688	-919.4265136718752	-467.518035888672	1072.369140625	-861.2041625976565	-311.5695495605469	758.3418579101564	-1102.734985351563	-261.4712219238282	690.6787719726564	-1113.57177734375	-214.7342071533204	704.6287841796876	-1109.281372070313	-273.2370910644532	632.5139770507814	-1099.68994140625	-243.9474792480469	518.1661376953126	-1106.755981445313	-203.0593566894532	492.6116943359376	-995.5203857421877	-197.7210083007813	368.7551269531251	-1088.927734375	-269.6500854492188	339.6348876953126	-1129.182250976563	-231.4404602050782	329.1637878417969	-1112.355224609375	-245.8647766113282	250.1835327148438	-1071.915161132813	-341.2891540527344	98.51911163330081	-1103.42041015625	-317.8843994140626	93.8968963623047	-1018.570556640625	-410.0145874023439	41.28289794921876	-1061.585327148438	-175.4199981689453	56.42391586303712	-1069.605834960938	-185.9043426513672	56.15137863159181	-1112.36669921875	-234.4000091552735	31.71790122985841	-1159.44091796875	-299.0844726562501	762.8383178710939	-687.6847534179689	-246.7277069091797	722.3825073242189	-676.2966918945314	-216.0363464355469	733.4193115234376	-681.5046386718751	-250.2830047607422	636.2503051757814	-677.3257446289064	-246.9367980957032	501.1875000000001	-688.4309692382814	-202.1049041748047	487.1445922851564	-795.9041748046877	-230.2279968261719	293.7165222167969	-692.4758911132814	-322.9353942871094	238.7673645019532	-687.3334960937501	-278.0170898437501	225.0938415527344	-685.8125000000001	-263.8124694824219	172.9621887207032	-711.1469726562501	-342.3195800781251	91.30923461914064	-691.1233520507814	-304.9998779296876	98.83357238769534	-773.982116699219	-406.0094604492189	39.8703842163086	-744.3856201171876	-172.5868377685547	51.69450759887697	-714.9021606445314	-184.6646423339844	58.90305709838869	-670.8341674804689	-242.7443542480469	31.95628356933594	-625.9555664062501	nan	nan	nan	nan	nan	nan	
444	2.215	-202.9380645751954	1737.69921875	-832.0327148437502	-343.1032409667969	1669.5791015625	-957.684020996094	-326.2537536621094	1685.832885742188	-818.5056152343752	-372.8064270019532	1540.636474609375	-890.9865722656252	-421.809539794922	1227.587768554688	-890.4531250000002	-236.2402954101563	1455.387573242188	-889.903503417969	-293.1791381835938	1506.308471679688	-1078.5390625	-396.3643798828126	1379.881713867188	-1237.360717773438	-363.0957641601563	1341.961303710938	-1241.420043945313	-404.9495849609376	1325.756713867188	-1281.349243164063	-407.2850952148439	1260.353393554688	-1311.241088867188	-483.752899169922	1248.967163085938	-1266.03369140625	-404.2899169921876	1025.4873046875	-1134.487915039063	-355.8647155761719	1004.918823242188	-1189.408935546875	-354.0826721191407	1030.853637695313	-1085.942504882813	-270.4119567871094	1506.475952148438	-698.5744018554689	-395.841766357422	1402.20458984375	-544.8446655273439	-367.8859252929688	1362.294677734375	-531.4640502929689	-417.4355468750001	1353.658325195313	-498.8050842285157	-418.7504882812501	1289.427001953125	-466.9632263183595	-495.2989807128907	1281.205200195313	-512.9691772460939	-385.5173950195314	1082.184204101563	-677.6032714843751	-373.6896667480469	1034.3203125	-619.1235961914064	-330.7445678710938	1054.296875	-722.5530395507814	-283.5704650878907	1020.436645507813	-1006.415588378906	-281.0088195800782	1009.532043457031	-788.471862792969	-455.4000244140626	1101.985961914063	-890.5494384765627	-465.8070678710939	1072.850830078125	-919.4639892578127	-467.7431945800782	1072.154418945313	-861.0601196289065	-311.7965698242188	758.0344238281251	-1102.846923828125	-261.5854187011719	690.5087280273439	-1113.725952148438	-214.9306640625001	704.4600830078126	-1109.42333984375	-273.1059265136719	632.1162719726564	-1099.752685546875	-243.6721343994141	518.0270385742189	-1106.918090820313	-202.4563140869141	492.7146606445314	-995.4779052734377	-197.4578247070313	368.7435607910157	-1088.939697265625	-269.4571838378907	339.4979248046876	-1129.256103515625	-231.3357391357422	329.0853576660157	-1112.439697265625	-245.7645874023438	250.1223907470704	-1071.93359375	-341.2445068359376	98.46732330322268	-1103.4521484375	-317.8786315917969	93.90744018554689	-1018.562805175781	-410.1614990234376	40.98538208007813	-1061.57275390625	-175.4120025634766	56.40939331054689	-1069.590209960938	-185.8863677978516	56.1327247619629	-1112.394409179688	-234.8439941406251	32.07879257202149	-1159.4619140625	-299.3069152832032	762.5027465820314	-687.6319580078126	-246.8995666503907	722.1918945312501	-676.0381469726564	-216.178451538086	733.3370971679689	-681.3945922851564	-250.3083953857422	636.0944824218751	-677.1711425781251	-246.6968994140626	501.1752319335939	-688.1494750976564	-201.9160614013672	487.092010498047	-795.691101074219	-230.307113647461	293.1093444824219	-692.4616088867189	-322.8147277832032	238.8214874267579	-687.2520141601564	-277.8988342285157	225.0839538574219	-685.6982421875001	-263.7316589355469	172.9179077148438	-711.1873168945314	-342.3096008300782	91.27539062500001	-691.0798339843751	-304.9636535644532	98.81990051269534	-773.9744262695315	-405.9874877929689	39.89396286010743	-744.4008789062501	-172.5711975097657	51.70528411865236	-714.8735961914064	-184.3479309082032	59.22303771972658	-670.6682128906251	-242.7754211425782	31.92288970947266	-625.9534301757814	nan	nan	nan	nan	nan	nan	
